# OBJ written from C:\Users\LOQUI\Documents\University\Proyecto 5\Objetos\Cruz.obj
# Units	meters

o Mesh
v 0.575 0.034 -0.176
v 0.575 0.471 -0.176
v 0.997 0.471 -0.176
v 0.997 0.029 -0.176
v 0.575 0.034 0.176
v 0.575 0.471 0.176
v 0.997 0.471 0.176
v 0.997 0.029 0.176
v 0.61 0.842 -0.176
v 0.962 0.842 -0.176
v 0.61 0.842 0.176
v 0.962 0.842 0.176
v 0.26 0.074 -0.176
v 0.26 0.426 -0.176
v 1.312 0.426 -0.176
v 1.312 0.074 -0.176
v 0.26 0.074 0.176
v 0.26 0.426 0.176
v 1.312 0.426 0.176
v 1.312 0.074 0.176
v 0.61 -0.866 -0.176
v 0.962 -0.866 -0.176
v 0.61 -0.866 0.176
v 0.962 -0.866 0.176
v 0.962 0.514 -0.176
v 0.61 0.514 -0.176
v 0.61 0.514 0.176
v 0.962 0.514 0.176
v 0.522 0.426 -0.176
v 0.522 0.074 -0.176
v 0.522 0.074 0.176
v 0.522 0.426 0.176
v 1.05 0.074 -0.176
v 1.05 0.426 -0.176
v 1.05 0.426 0.176
v 1.05 0.074 0.176
v 0.61 -0.014 -0.176
v 0.962 -0.014 -0.176
v 0.962 -0.014 0.176
v 0.61 -0.014 0.176
v 0.573 -0.946 -0.213
v 0.999 -0.946 -0.213
v 0.573 -0.946 0.213
v 0.999 -0.946 0.213
v 0.16788 -1.051 -0.21816
v 1.40412 -1.051 -0.21816
v 0.16788 -1.051 0.21816
v 1.40412 -1.051 0.21816
v 0.16788 -1.091 -0.21816
v 1.40412 -1.091 -0.21816
v 0.16788 -1.091 0.21816
v 1.40412 -1.091 0.21816
vn -0.950791 -0.309833 0
vn -0.976634 0.21491 0
vn 1 0 0
vn 0 1 0
vn -1 0 0
vn 0 -1 0
vn 0 0.21491 0.976634
vn 0 0 1
vn 0.942221 -0.334991 0
vn 0.976634 0.21491 0
vn -0.317656 -0.948206 0
vn 0.942221 0.334991 0
vn -0.942221 0.334991 0
vn 0 0.21491 -0.976634
vn 0 0 -1
vn -0.714406 0.699731 0
vn 0.714406 0.699731 0
vn -0.712909 -0.701257 0
vn -0.647231 0.762294 0
vn 0.647231 0.762294 0
vn 0.714406 -0.699731 0
vn 0.647231 -0.762294 0
vn -0.907627 0.419778 0
vn 0 0.238821 -0.971064
vn 0.907627 0.419778 0
vn 0 0.238821 0.971064
vn 0 0.0245492 0.999699
vn -0.250893 0.968015 0
vn 0 0.0245492 -0.999699
vn 0.250892 0.968015 0
vt 0.182609 0.848372
vt 0.182609 0.697586
vt 0.458596 0.697586
vt 0.458596 0.848372
vt 0.831978 0.933535
vt 0.892904 0.933535
vt 0.892904 0.663621
vt 0.831978 0.663621
vt 0.604201 0.01
vt 0.604201 0.084178
vt 0.825892 0.084178
vt 0.825892 0.01
vt 0.178357 0.937469
vt 0.178357 0.876543
vt 0.448271 0.876543
vt 0.448271 0.937469
vt 0.0756563 0.372334
vt 0.0756563 0.211726
vt 0.324275 0.211726
vt 0.336822 0.195757
vt 0.349954 0.171575
vt 0.349954 0.0520317
vt 0.452669 0.0520317
vt 0.452669 0.171575
vt 0.4658 0.195757
vt 0.478348 0.211726
vt 0.57406 0.211726
vt 0.57406 0.372334
vt 0.478348 0.372334
vt 0.4658 0.388303
vt 0.452669 0.412486
vt 0.452669 0.532028
vt 0.349954 0.532028
vt 0.349954 0.412486
vt 0.338281 0.388303
vt 0.324275 0.372334
vt 0.749274 0.103371
vt 0.598547 0.103371
vt 0.598547 0.379251
vt 0.749274 0.379251
vt 0.906253 0.430892
vt 0.961465 0.430892
vt 0.961465 0.652583
vt 0.906253 0.652583
vt 0.921852 0.0991302
vt 0.86664 0.0991302
vt 0.86664 0.320821
vt 0.921852 0.320821
vt 0.892142 0.430892
vt 0.83693 0.430892
vt 0.83693 0.652584
vt 0.892142 0.652584
vt 0.065212 0.905119
vt 0.01 0.905119
vt 0.01 0.683428
vt 0.065212 0.683428
vt 0.802088 0.663621
vt 0.742848 0.663621
vt 0.742848 0.945274
vt 0.802088 0.945274
vt 0.83675 0.380782
vt 0.77751 0.380782
vt 0.77751 0.0991302
vt 0.83675 0.0991302
vt 0.503875 0.924344
vt 0.664482 0.924344
vt 0.664482 0.675726
vt 0.680451 0.661719
vt 0.704634 0.650047
vt 0.824176 0.650047
vt 0.824176 0.547332
vt 0.704634 0.547332
vt 0.664482 0.521653
vt 0.664482 0.425941
vt 0.503875 0.425941
vt 0.503875 0.521653
vt 0.463723 0.547332
vt 0.34418 0.547332
vt 0.34418 0.650047
vt 0.463723 0.650047
vt 0.503875 0.675726
vt 0.844516 0.0991302
vt 0.844516 0.380782
vt 0.809855 0.945274
vt 0.809855 0.663621
vt 0.182609 0.856866
vt 0.458596 0.856866
vt 0.458596 0.863946
vt 0.182609 0.863946
vt 0.852644 0.0991302
vt 0.852644 0.380782
vt 0.817982 0.945274
vt 0.817982 0.663621
vt 0.756881 0.103371
vt 0.756881 0.379251
vt 0.764842 0.379251
vt 0.764842 0.103371
vt 0.153599 0.683428
vt 0.487606 0.683428
vt 0.486993 0.947688
vt 0.681364 0.947688
vt 0.584394 0.0743718
vt 0.584394 0.408249
vt 0.0523118 0.389216
vt 0.0523118 0.194844
vt 0.0216722 0.57406
vt 0.0216722 0.01
vt 0.168441 0.976916
vt 0.168441 0.711402
vt 0.0793235 0.708186
vt 0.0793235 0.980132
vt 0.302149 0.978328
vt 0.866208 0.978328
vt 0.328246 0.584394
vt 0.0627329 0.584394
vt 0.0595168 0.673512
vt 0.331462 0.673512
vt 0.01 0.57406
vt 0.01 0.01
vt 0.03971 0.0298067
vt 0.374279 0.0298067
vt 0.374279 0.0367301
vt 0.03971 0.0367301
vt 0.302149 0.99
vt 0.866208 0.99
vt 0.374281 0.01
vt 0.0397101 0.01
vt 0.0397101 0.0169233
vt 0.374281 0.0169233
mtllib Cruz.mtl
usemtl Default
g Default
f 37/1/1 21/2/2 23/3/2 40/4/1
f 19/5/3 20/6/3 16/7/3 15/8/3
f 11/9/4 12/10/4 10/11/4 9/12/4
f 17/13/5 18/14/5 14/15/5 13/16/5
f 52//6 51//6 49//6 50//6
f 23/17/7 24/18/7 39/19/8 8/20/8 36/21/8 20/22/8 19/23/8 35/24/8 7/25/8 28/26/8 12/27/8 11/28/8 27/29/8 6/30/8 32/31/8 18/32/8 17/33/8 31/34/8 5/35/8 40/36/8
f 39/37/9 24/38/10 22/39/10 38/40/9
f 29//8 2//8 26//8
f 33/41/6 16/42/6 20/43/6 36/44/6
f 35/45/4 19/46/4 15/47/4 34/48/4
f 29/49/4 14/50/4 18/51/4 32/52/4
f 31/53/11 17/54/6 13/55/6 30/56/11
f 25/57/12 10/58/3 12/59/3 28/60/12
f 27/61/13 11/62/5 9/63/5 26/64/13
f 22/65/14 21/66/14 37/67/15 1/68/15 30/69/15 13/70/15 14/71/15 29/72/15 26/73/15 9/74/15 10/75/15 25/76/15 34/77/15 15/78/15 16/79/15 33/80/15 38/81/15
f 33//8 4//8 38//8
f 25//8 3//8 34//8
f 2/82/16 6/83/16 27/61/13 26/64/13
f 7/84/17 3/85/17 25/57/12 28/60/12
f 1/86/18 5/87/18 31/88/11 30/89/11
f 6/83/16 2/82/16 29/90/19 32/91/19
f 3/85/17 7/84/17 35/92/20 34/93/20
f 8/94/21 4/95/21 33/96/22 36/97/22
f 4/95/21 8/94/21 39/37/9 38/40/9
f 5/87/18 1/86/18 37/1/1 40/4/1
f 23/3/2 21/2/2 41/98/23 43/99/23
f 21/66/14 22/65/14 42/100/24 41/101/24
f 22/39/10 24/38/10 44/102/25 42/103/25
f 24/18/7 23/17/7 43/104/26 44/105/26
f 44/105/26 43/104/26 47/106/27 48/107/27
f 43/108/28 41/109/28 45/110/28 47/111/28
f 41/101/24 42/100/24 46/112/29 45/113/29
f 42/114/30 44/115/30 48/116/30 46/117/30
f 48/107/27 47/106/27 51/118/8 52/119/8
f 47/120/5 45/121/5 49/122/5 51/123/5
f 45/113/29 46/112/29 50/124/15 49/125/15
f 46/126/3 48/127/3 52/128/3 50/129/3
