# OBJ written from C:\Users\LOQUI\Documents\University\Proyecto 5\Objetos\Bala.obj
# Units	meters

o Mesh
v 0 -0.025 -0.655
v -0.095 -0.025 -0.629545
v -0.164545 -0.025 -0.56
v -0.19 -0.025 -0.465
v -0.164545 -0.025 -0.37
v -0.095 -0.025 -0.300455
v 0 -0.025 -0.275
v 0.095 -0.025 -0.300455
v 0.164545 -0.025 -0.37
v 0.19 -0.025 -0.465
v 0.164545 -0.025 -0.56
v 0.095 -0.025 -0.629545
v 0 0.625 -0.655
v -0.095 0.625 -0.629545
v -0.164545 0.625 -0.56
v -0.19 0.625 -0.465
v -0.164545 0.625 -0.37
v -0.095 0.625 -0.300455
v 0 0.625 -0.275
v 0.095 0.625 -0.300455
v 0.164545 0.625 -0.37
v 0.19 0.625 -0.465
v 0.164545 0.625 -0.56
v 0.095 0.625 -0.629545
v 0 -0.025 -0.635537
v -0.0852684 -0.025 -0.612689
v -0.147689 -0.025 -0.550268
v -0.170537 -0.025 -0.465
v -0.147689 -0.025 -0.379732
v -0.0852684 -0.025 -0.317311
v 0 -0.025 -0.294463
v 0.0852684 -0.025 -0.317311
v 0.147689 -0.025 -0.379732
v 0.170537 -0.025 -0.465
v 0.147689 -0.025 -0.550268
v 0.0852684 -0.025 -0.612689
v 0 -0.053 -0.635537
v -0.0852684 -0.053 -0.612689
v -0.147689 -0.053 -0.550268
v -0.170537 -0.053 -0.465
v -0.147689 -0.053 -0.379732
v -0.0852684 -0.053 -0.317311
v 0 -0.053 -0.294463
v 0.0852684 -0.053 -0.317311
v 0.147689 -0.053 -0.379732
v 0.170537 -0.053 -0.465
v 0.147689 -0.053 -0.550268
v 0.0852684 -0.053 -0.612689
v 0 -0.053 -0.650031
v -0.0925153 -0.053 -0.625241
v -0.160241 -0.053 -0.557515
v -0.185031 -0.053 -0.465
v -0.160241 -0.053 -0.372485
v -0.0925153 -0.053 -0.304759
v 0 -0.053 -0.279969
v 0.0925153 -0.053 -0.304759
v 0.160241 -0.053 -0.372485
v 0.185031 -0.053 -0.465
v 0.160241 -0.053 -0.557515
v 0.0925153 -0.053 -0.625241
v 0 -0.081 -0.650031
v -0.0925153 -0.081 -0.625241
v -0.160241 -0.081 -0.557515
v -0.185031 -0.081 -0.465
v -0.160241 -0.081 -0.372485
v -0.0925153 -0.081 -0.304759
v 0 -0.081 -0.279969
v 0.0925153 -0.081 -0.304759
v 0.160241 -0.081 -0.372485
v 0.185031 -0.081 -0.465
v 0.160241 -0.081 -0.557515
v 0.0925153 -0.081 -0.625241
v 0 -0.081 -0.551472
v -0.0432362 -0.081 -0.539887
v -0.0748873 -0.081 -0.508236
v -0.0864724 -0.081 -0.465
v -0.0748873 -0.081 -0.421764
v -0.0432362 -0.081 -0.390113
v 0 -0.081 -0.378528
v 0.0432362 -0.081 -0.390113
v 0.0748873 -0.081 -0.421764
v 0.0864724 -0.081 -0.465
v 0.0748873 -0.081 -0.508236
v 0.0432362 -0.081 -0.539887
v 0 -0.067 -0.551472
v -0.0432362 -0.067 -0.539887
v -0.0748873 -0.067 -0.508236
v -0.0864724 -0.067 -0.465
v -0.0748873 -0.067 -0.421764
v -0.0432362 -0.067 -0.390113
v 0 -0.067 -0.378528
v 0.0432362 -0.067 -0.390113
v 0.0748873 -0.067 -0.421764
v 0.0864724 -0.067 -0.465
v 0.0748873 -0.067 -0.508236
v 0.0432362 -0.067 -0.539887
v 0 0.634 -0.649409
v -0.0922048 0.634 -0.624703
v -0.159703 0.634 -0.557205
v -0.184409 0.634 -0.465
v -0.159703 0.634 -0.372795
v -0.0922047 0.634 -0.305297
v 0 0.634 -0.280591
v 0.0922047 0.634 -0.305297
v 0.159703 0.634 -0.372795
v 0.184409 0.634 -0.465
v 0.159703 0.634 -0.557205
v 0.0922048 0.634 -0.624703
v 0 0.640684 -0.660793
v -0.0978964 0.640684 -0.634562
v -0.169562 0.640684 -0.562896
v -0.195793 0.640684 -0.465
v -0.169562 0.640684 -0.367104
v -0.0978964 0.640684 -0.295438
v 0 0.640684 -0.269207
v 0.0978964 0.640684 -0.295438
v 0.169562 0.640684 -0.367104
v 0.195793 0.640684 -0.465
v 0.169562 0.640684 -0.562896
v 0.0978964 0.640684 -0.634562
v 0 0.800816 -0.631755
v -0.0833774 0.800816 -0.609414
v -0.144414 0.800816 -0.548377
v -0.166755 0.800816 -0.465
v -0.144414 0.800816 -0.381623
v -0.0833774 0.800816 -0.320586
v 0 0.800816 -0.298245
v 0.0833774 0.800816 -0.320586
v 0.144414 0.800816 -0.381623
v 0.166755 0.800816 -0.465
v 0.144414 0.800816 -0.548377
v 0.0833774 0.800816 -0.609414
v 0 0.8795 -0.591745
v -0.0633723 0.8795 -0.574764
v -0.109764 0.8795 -0.528372
v -0.126745 0.8795 -0.465
v -0.109764 0.8795 -0.401628
v -0.0633723 0.8795 -0.355236
v 0 0.8795 -0.338255
v 0.0633723 0.8795 -0.355236
v 0.109764 0.8795 -0.401628
v 0.126745 0.8795 -0.465
v 0.109764 0.8795 -0.528372
v 0.0633723 0.8795 -0.574764
v 0 0.726001 -0.648161
v -0.0915806 0.726001 -0.623622
v 0.0915806 0.726001 -0.623622
v 0.158622 0.726001 -0.556581
v 0.183161 0.726001 -0.465
v 0.158622 0.726001 -0.373419
v 0.0915806 0.726001 -0.306378
v 0 0.726001 -0.281839
v -0.0915806 0.726001 -0.306378
v -0.158622 0.726001 -0.373419
v -0.183161 0.726001 -0.465
v -0.158622 0.726001 -0.556581
v 0 0.9255 -0.524284
v -0.0296422 0.9255 -0.516342
v -0.0513417 0.9255 -0.494642
v -0.0592843 0.9255 -0.465
v -0.0513417 0.9255 -0.435358
v -0.0296422 0.9255 -0.413658
v 0 0.9255 -0.405716
v 0.0296422 0.9255 -0.413658
v 0.0513417 0.9255 -0.435358
v 0.0592843 0.9255 -0.465
v 0.0513417 0.9255 -0.494642
v 0.0296422 0.9255 -0.516342
v 0 0.9395 -0.494054
v -0.0145271 0.9395 -0.490162
v -0.0251617 0.9395 -0.479527
v -0.0290543 0.9395 -0.465
v -0.0251617 0.9395 -0.450473
v -0.0145272 0.9395 -0.439838
v 0 0.9395 -0.435946
v 0.0145272 0.9395 -0.439838
v 0.0251617 0.9395 -0.450473
v 0.0290543 0.9395 -0.465
v 0.0251617 0.9395 -0.479527
v 0.0145271 0.9395 -0.490162
vn 0 -1 0
vn -0.0788002 0.182677 -0.98001
vn 0 0 -1
vn -0.5 0 -0.866026
vn -0.421762 0.182677 -0.888114
vn -0.558248 0.182677 -0.809313
vn -0.866025 0 -0.5
vn -0.809313 0.182677 -0.558248
vn -0.888114 0.182677 -0.421762
vn -1 0 0
vn -0.98001 0.182677 -0.0788004
vn -0.98001 0.182677 0.0788004
vn -0.866025 0 0.5
vn -0.888114 0.182677 0.421762
vn -0.809313 0.182677 0.558248
vn -0.5 0 0.866025
vn -0.558248 0.182677 0.809313
vn -0.421762 0.182677 0.888114
vn 0 0 1
vn -0.0788004 0.182677 0.98001
vn 0.0788004 0.182677 0.98001
vn 0.5 0 0.866025
vn 0.421762 0.182677 0.888114
vn 0.558248 0.182677 0.809313
vn 0.866025 0 0.5
vn 0.809313 0.182677 0.558248
vn 0.888114 0.182677 0.421762
vn 1 0 0
vn 0.98001 0.182677 0.0788004
vn 0.98001 0.182677 -0.0788004
vn 0.866025 0 -0.5
vn 0.888114 0.182677 -0.421762
vn 0.809313 0.182677 -0.558248
vn 0.5 0 -0.866026
vn 0.558248 0.182677 -0.809313
vn 0.421762 0.182677 -0.888114
vn 0.0788002 0.182677 -0.98001
vn 2.54704e-009 0.958373 -0.285518
vn -0.142759 0.958373 -0.247266
vn -0.247266 0.958373 -0.142759
vn -0.285518 0.958373 -2.03763e-008
vn -0.247266 0.958373 0.142759
vn -0.142759 0.958373 0.247266
vn -2.29233e-008 0.958373 0.285518
vn 0.142759 0.958373 0.247266
vn 0.247266 0.958373 0.142759
vn 0.285518 0.958373 -2.03763e-008
vn 0.247266 0.958373 -0.142759
vn 0.142759 0.958373 -0.247266
vn 0.866026 0 -0.5
vn 0.866025 0 0.5
vn 0.5 0 0.866025
vn -0.5 0 0.866025
vn -0.866025 0 0.5
vn -0.866026 0 -0.5
vn 0 1 0
vn 0.5 0 -0.866025
vn 0.866026 0 -0.5
vn 1 0 -4.62805e-008
vn 0.5 0 0.866025
vn -0.5 0 0.866025
vn -1 0 -4.62805e-008
vn -0.866026 0 -0.5
vn -0.5 0 -0.866025
vn -0.5 0 0.866025
vn -0.866025 0 0.5
vn -0.866025 0 -0.5
vn -0.5 0 -0.866026
vn 0.5 0 -0.866026
vn 0.866025 0 -0.5
vn 0.866025 0 0.5
vn 0.5 0 0.866025
vn 0.0914879 0.363731 -0.927
vn 0 0.527655 -0.849459
vn 0.424729 0.527655 -0.735653
vn 0.384269 0.363731 -0.84855
vn 0.542731 0.363731 -0.757062
vn 0.735653 0.527655 -0.424729
vn 0.757062 0.363731 -0.542731
vn 0.927 0.363731 -0.0914882
vn 0.84855 0.363731 -0.384269
vn 0.849459 0.527655 0
vn 0.927 0.363731 0.0914882
vn 0.735653 0.527655 0.424729
vn 0.84855 0.363731 0.384269
vn 0.542731 0.363731 0.757062
vn 0.757062 0.363731 0.542731
vn 0.424729 0.527655 0.735653
vn 0.0914882 0.363731 0.927
vn 0.384269 0.363731 0.84855
vn 0 0.527655 0.849459
vn -0.0914882 0.363731 0.927
vn -0.424729 0.527655 0.735653
vn -0.384269 0.363731 0.84855
vn -0.757062 0.363731 0.542731
vn -0.542731 0.363731 0.757062
vn -0.735653 0.527655 0.424729
vn -0.927 0.363731 0.0914882
vn -0.84855 0.363731 0.384269
vn -0.849459 0.527655 0
vn -0.927 0.363731 -0.0914882
vn -0.735653 0.527655 -0.424729
vn -0.84855 0.363731 -0.384269
vn -0.542731 0.363731 -0.757062
vn -0.757062 0.363731 -0.542731
vn -0.424729 0.527655 -0.735653
vn -0.0914879 0.363731 -0.927
vn -0.384269 0.363731 -0.84855
vn -0.253164 -0.862341 -0.438494
vn -0.438494 -0.862341 -0.253164
vn -0.506328 -0.862341 1.50377e-008
vn -0.438493 -0.862341 0.253164
vn -0.253164 -0.862341 0.438493
vn 1.20301e-007 -0.86234 0.506329
vn 0.253164 -0.86234 0.438494
vn 0.438493 -0.862341 0.253164
vn 0.506328 -0.862341 3.00753e-008
vn 0.438493 -0.862341 -0.253164
vn 0.253164 -0.86234 -0.438494
vn 1.65414e-007 -0.86234 -0.506329
vn -0.815436 0.336778 -0.470792
vn -0.941584 0.336778 -3.87171e-009
vn -0.749501 0.662003 1.56854e-008
vn -0.649087 0.662003 -0.37475
vn -0.815436 0.336778 0.470792
vn -0.649087 0.662003 0.374751
vn -0.470792 0.336778 0.815436
vn -0.37475 0.662003 0.649087
vn 1.16151e-008 0.336778 0.941584
vn 0 0.662003 0.749501
vn 0.470792 0.336778 0.815436
vn 0.37475 0.662003 0.649087
vn 0.815436 0.336778 0.470792
vn 0.649087 0.662003 0.374751
vn 0.941584 0.336778 0
vn 0.749501 0.662003 1.56854e-008
vn 0.815436 0.336778 -0.470792
vn 0.649087 0.662003 -0.37475
vn 0.470792 0.336778 -0.815436
vn 0.374751 0.662003 -0.649087
vn -1.16151e-008 0.336778 -0.941584
vn -1.56854e-008 0.662003 -0.749501
vn -0.470792 0.336778 -0.815436
vn -0.374751 0.662003 -0.649087
vn -7.70928e-009 0.180451 -0.983584
vn -0.491792 0.180451 -0.851809
vn -1.54157e-008 0.146456 -0.989217
vn -0.494609 0.146456 -0.856687
vn 0.491792 0.180451 -0.851809
vn 0.494609 0.146456 -0.856687
vn 0.851809 0.180451 -0.491792
vn 0.856687 0.146456 -0.494608
vn 0.983584 0.180451 0
vn 0.989217 0.146456 0
vn 0.851809 0.180451 0.491792
vn 0.856687 0.146456 0.494609
vn 0.491792 0.180451 0.851809
vn 0.494608 0.146456 0.856687
vn 7.70928e-009 0.180451 0.983584
vn 0 0.146456 0.989217
vn -0.491792 0.180451 0.851809
vn -0.494608 0.146456 0.856687
vn -0.851809 0.180451 0.491792
vn -0.856687 0.146456 0.494609
vn -0.983584 0.180451 0
vn -0.989217 0.146456 0
vn -0.851809 0.180451 -0.491792
vn -0.856687 0.146456 -0.494609
vn -0.24665 0.869859 0.427211
vn -0.427211 0.869859 0.24665
vn -2.07401e-008 0.869859 0.4933
vn 0.24665 0.869859 0.427211
vn 0.427211 0.869859 0.24665
vn 0.4933 0.869859 0
vn 0.427211 0.869859 -0.24665
vn 0.24665 0.869859 -0.427211
vn -1.88546e-009 0.869859 -0.4933
vn -0.24665 0.869859 -0.427211
vn -0.427211 0.869859 -0.24665
vn -0.4933 0.869859 3.77093e-009
vt 0.467 0.849648
vt 0.439248 0.842212
vt 0.418933 0.821896
vt 0.411497 0.794145
vt 0.418933 0.766394
vt 0.439248 0.746078
vt 0.467 0.738642
vt 0.494751 0.746078
vt 0.515066 0.766394
vt 0.522502 0.794145
vt 0.515066 0.821896
vt 0.494751 0.842212
vt 0.743008 0.38402
vt 0.434201 0.103505
vt 0.476621 0.0567527
vt 0.785428 0.337267
vt 0.519041 0.01
vt 0.827848 0.290515
vt 0.318807 0.851546
vt 0.01 0.57103
vt 0.05242 0.524277
vt 0.361227 0.804794
vt 0.0948405 0.477525
vt 0.403648 0.758041
vt 0.137261 0.430772
vt 0.446068 0.711288
vt 0.179681 0.38402
vt 0.488488 0.664536
vt 0.222101 0.337268
vt 0.530908 0.617783
vt 0.264521 0.290515
vt 0.573328 0.571031
vt 0.306941 0.243763
vt 0.615748 0.524278
vt 0.349361 0.19701
vt 0.658168 0.477525
vt 0.391781 0.150258
vt 0.700588 0.430773
vt 0.774754 0.73409
vt 0.785783 0.737363
vt 0.795444 0.746982
vt 0.791575 0.759799
vt 0.783724 0.767978
vt 0.77429 0.771333
vt 0.765224 0.770215
vt 0.758087 0.765414
vt 0.754028 0.758085
vt 0.753749 0.749664
vt 0.757447 0.741758
vt 0.764767 0.736031
vt 0.221174 0.01
vt 0.28215 0.0263385
vt 0.275904 0.0371572
vt 0.221174 0.0224925
vt 0.326788 0.0709761
vt 0.315969 0.0772224
vt 0.343127 0.131952
vt 0.330634 0.131952
vt 0.326788 0.192929
vt 0.315969 0.186682
vt 0.28215 0.237566
vt 0.275904 0.226748
vt 0.221174 0.253905
vt 0.221174 0.241412
vt 0.160198 0.237566
vt 0.166444 0.226748
vt 0.11556 0.192929
vt 0.126379 0.186682
vt 0.0992215 0.131952
vt 0.111714 0.131952
vt 0.11556 0.0709761
vt 0.126379 0.0772224
vt 0.160198 0.0263385
vt 0.166444 0.0371572
vt 0.139937 0.389222
vt 0.128575 0.389222
vt 0.128575 0.252881
vt 0.139937 0.252881
vt 0.117213 0.389222
vt 0.117213 0.252881
vt 0.105851 0.389222
vt 0.105851 0.252881
vt 0.0944894 0.389222
vt 0.0944894 0.252881
vt 0.0831276 0.389222
vt 0.0831276 0.252881
vt 0.0717658 0.389222
vt 0.0717658 0.252881
vt 0.060404 0.389222
vt 0.060404 0.252881
vt 0.0490422 0.389222
vt 0.0490422 0.252881
vt 0.0376804 0.389222
vt 0.0376804 0.252881
vt 0.0263186 0.389222
vt 0.0263186 0.252881
vt 0.0149568 0.389222
vt 0.0149568 0.252881
vt 0.151298 0.389222
vt 0.151298 0.252881
vt 0.988199 0.379352
vt 0.988207 0.446295
vt 0.971695 0.446296
vt 0.971686 0.379355
vt 0.988208 0.513238
vt 0.971696 0.513237
vt 0.988204 0.580178
vt 0.971693 0.580176
vt 0.988199 0.647113
vt 0.971689 0.647111
vt 0.988189 0.714042
vt 0.971682 0.714037
vt 0.988165 0.780955
vt 0.971662 0.780947
vt 0.988141 0.847856
vt 0.971639 0.847849
vt 0.988124 0.914755
vt 0.971622 0.914749
vt 0.988111 0.981655
vt 0.97161 0.98165
vt 0.988174 0.17853
vt 0.988182 0.245468
vt 0.971671 0.245471
vt 0.971663 0.178533
vt 0.988189 0.31241
vt 0.971677 0.312412
vt 0.852448 0.01
vt 0.91183 0.0259111
vt 0.9553 0.0693813
vt 0.971211 0.128763
vt 0.9553 0.188144
vt 0.91183 0.231614
vt 0.852448 0.247526
vt 0.793067 0.231614
vt 0.749597 0.188144
vt 0.733686 0.128763
vt 0.749597 0.0693813
vt 0.793067 0.0259111
vt 0.852448 0.07326
vt 0.824697 0.080696
vt 0.804382 0.101011
vt 0.796946 0.128763
vt 0.804382 0.156514
vt 0.824697 0.176829
vt 0.852448 0.184265
vt 0.8802 0.176829
vt 0.900515 0.156514
vt 0.907951 0.128763
vt 0.900515 0.101011
vt 0.8802 0.080696
vt 0.393124 0.01
vt 0.388486 0.01
vt 0.388486 0.0656599
vt 0.393124 0.0656599
vt 0.383847 0.01
vt 0.383847 0.0656599
vt 0.379209 0.01
vt 0.379209 0.0656599
vt 0.374571 0.01
vt 0.374571 0.0656599
vt 0.369932 0.01
vt 0.369932 0.0656599
vt 0.365294 0.01
vt 0.365294 0.0656599
vt 0.360656 0.01
vt 0.360656 0.0656599
vt 0.356017 0.01
vt 0.356017 0.0656599
vt 0.351379 0.01
vt 0.351379 0.0656599
vt 0.346741 0.01
vt 0.346741 0.0656599
vt 0.342102 0.01
vt 0.342102 0.0656599
vt 0.397762 0.01
vt 0.397762 0.0656599
vt 0.175726 0.743599
vt 0.175726 0.804567
vt 0.166872 0.804567
vt 0.166872 0.743599
vt 0.158018 0.804567
vt 0.158018 0.743599
vt 0.149165 0.743599
vt 0.149165 0.804567
vt 0.140311 0.804567
vt 0.140311 0.743599
vt 0.131457 0.743599
vt 0.131457 0.804567
vt 0.122603 0.743599
vt 0.122603 0.804567
vt 0.11375 0.804567
vt 0.11375 0.743599
vt 0.104896 0.743599
vt 0.104896 0.804567
vt 0.0960422 0.743599
vt 0.0960422 0.804567
vt 0.0871885 0.804567
vt 0.0871885 0.743599
vt 0.0783347 0.743599
vt 0.0783347 0.804567
vt 0.069481 0.743599
vt 0.069481 0.804567
vt 0.0871885 0.849844
vt 0.0783347 0.849844
vt 0.0960422 0.849844
vt 0.104896 0.849844
vt 0.11375 0.849844
vt 0.122603 0.849844
vt 0.131457 0.849844
vt 0.140311 0.849844
vt 0.149165 0.849844
vt 0.158018 0.849844
vt 0.166872 0.849844
vt 0.175726 0.849844
vt 0.069481 0.849844
vt 0.90287 0.862405
vt 0.848798 0.880683
vt 0.834112 0.828348
vt 0.872376 0.806734
vt 0.798378 0.886303
vt 0.797669 0.837009
vt 0.751507 0.87939
vt 0.764051 0.834644
vt 0.710062 0.859824
vt 0.734924 0.822379
vt 0.677391 0.82814
vt 0.712446 0.801566
vt 0.656883 0.787507
vt 0.698716 0.774457
vt 0.650684 0.741895
vt 0.695241 0.74391
vt 0.65977 0.69553
vt 0.702781 0.713084
vt 0.684065 0.652637
vt 0.721361 0.685207
vt 0.722502 0.617176
vt 0.750419 0.663393
vt 0.773272 0.592259
vt 0.789198 0.650523
vt 0.835856 0.578299
vt 0.83763 0.649544
vt 0.692412 0.575098
vt 0.752362 0.541039
vt 0.651207 0.520972
vt 0.72345 0.479749
vt 0.645692 0.622982
vt 0.592744 0.585318
vt 0.616381 0.679964
vt 0.556997 0.660727
vt 0.606103 0.741012
vt 0.545329 0.740916
vt 0.615062 0.800958
vt 0.557941 0.81967
vt 0.642209 0.854597
vt 0.593906 0.890741
vt 0.684994 0.896717
vt 0.651207 0.947665
vt 0.738078 0.922046
vt 0.720397 0.977787
vt 0.796117 0.932193
vt 0.791877 0.99
vt 0.856682 0.928896
vt 0.863242 0.987398
vt 0.919447 0.91446
vt 0.933184 0.973824
vt 0.821877 0.517666
vt 0.800164 0.451151
vt 0.772654 0.791143
vt 0.790734 0.789331
vt 0.75669 0.786525
vt 0.744452 0.776602
vt 0.737292 0.762923
vt 0.736141 0.747386
vt 0.741409 0.732106
vt 0.752961 0.71927
vt 0.770139 0.711007
vt 0.791844 0.709262
vt 0.81663 0.715698
vt 0.809214 0.780342
vt 0.826343 0.763769
mtllib Bala.mtl
usemtl Default
g Default
f 85/1/1 96/2/1 95/3/1 94/4/1 93/5/1 92/6/1 91/7/1 90/8/1 89/9/1 88/10/1 87/11/1 86/12/1
f 13/13/2 1/14/3 2/15/4 14/16/5
f 14/16/6 2/15/4 3/17/7 15/18/8
f 15/19/9 3/20/7 4/21/10 16/22/11
f 16/22/12 4/21/10 5/23/13 17/24/14
f 17/24/15 5/23/13 6/25/16 18/26/17
f 18/26/18 6/25/16 7/27/19 19/28/20
f 19/28/21 7/27/19 8/29/22 20/30/23
f 20/30/24 8/29/22 9/31/25 21/32/26
f 21/32/27 9/31/25 10/33/28 22/34/29
f 22/34/30 10/33/28 11/35/31 23/36/32
f 23/36/33 11/35/31 12/37/34 24/38/35
f 24/38/36 12/37/34 1/14/3 13/13/37
f 169/39/38 170/40/39 171/41/40 172/42/41 173/43/42 174/44/43 175/45/44 176/46/45 177/47/46 178/48/47 179/49/48 180/50/49
f 1/51/1 12/52/1 36/53/1 25/54/1
f 12/52/1 11/55/1 35/56/1 36/53/1
f 11/55/1 10/57/1 34/58/1 35/56/1
f 10/57/1 9/59/1 33/60/1 34/58/1
f 9/59/1 8/61/1 32/62/1 33/60/1
f 8/61/1 7/63/1 31/64/1 32/62/1
f 7/63/1 6/65/1 30/66/1 31/64/1
f 6/65/1 5/67/1 29/68/1 30/66/1
f 5/67/1 4/69/1 28/70/1 29/68/1
f 4/69/1 3/71/1 27/72/1 28/70/1
f 3/71/1 2/73/1 26/74/1 27/72/1
f 2/73/1 1/51/1 25/54/1 26/74/1
f 36/75/34 35/76/50 47/77/50 48/78/34
f 35/76/50 34/79/28 46/80/28 47/77/50
f 34/79/28 33/81/51 45/82/51 46/80/28
f 33/81/51 32/83/52 44/84/52 45/82/51
f 32/83/52 31/85/19 43/86/19 44/84/52
f 31/85/19 30/87/53 42/88/53 43/86/19
f 30/87/53 29/89/54 41/90/54 42/88/53
f 29/89/54 28/91/10 40/92/10 41/90/54
f 28/91/10 27/93/55 39/94/55 40/92/10
f 27/93/55 26/95/4 38/96/4 39/94/55
f 26/95/4 25/97/3 37/98/3 38/96/4
f 25/99/3 36/75/34 48/78/34 37/100/3
f 48/78/56 47/77/56 59/77/56 60/78/56
f 47/77/56 46/80/56 58/80/56 59/77/56
f 46/80/56 45/82/56 57/82/56 58/80/56
f 45/82/56 44/84/56 56/84/56 57/82/56
f 44/84/56 43/86/56 55/86/56 56/84/56
f 43/86/56 42/88/56 54/88/56 55/86/56
f 42/88/56 41/90/56 53/90/56 54/88/56
f 41/90/56 40/92/56 52/92/56 53/90/56
f 40/92/56 39/94/56 51/94/56 52/92/56
f 39/94/56 38/96/56 50/96/56 51/94/56
f 38/96/56 37/98/56 49/98/56 50/96/56
f 37/100/56 48/78/56 60/78/56 49/100/56
f 60/101/57 59/102/58 71/103/58 72/104/57
f 59/102/58 58/105/59 70/106/59 71/103/58
f 58/105/59 57/107/51 69/108/51 70/106/59
f 57/107/51 56/109/60 68/110/60 69/108/51
f 56/109/60 55/111/19 67/112/19 68/110/60
f 55/111/19 54/113/61 66/114/61 67/112/19
f 54/113/61 53/115/54 65/116/54 66/114/61
f 53/115/54 52/117/62 64/118/62 65/116/54
f 52/117/62 51/119/63 63/120/63 64/118/62
f 51/121/63 50/122/64 62/123/64 63/124/63
f 50/122/64 49/125/3 61/126/3 62/123/64
f 49/125/3 60/101/57 72/104/57 61/126/3
f 61/127/1 72/128/1 71/129/1 70/130/1 69/131/1 68/132/1 67/133/1 66/134/1 65/135/1 64/136/1 63/137/1 62/138/1 61/127/1 73/139/1 74/140/1 75/141/1 76/142/1 77/143/1 78/144/1 79/145/1 80/146/1 81/147/1 82/148/1 83/149/1 84/150/1 73/139/1
f 84/151/65 83/152/66 95/153/66 96/154/65
f 83/152/66 82/155/10 94/156/10 95/153/66
f 82/155/10 81/157/67 93/158/67 94/156/10
f 81/157/67 80/159/68 92/160/68 93/158/67
f 80/159/68 79/161/3 91/162/3 92/160/68
f 79/161/3 78/163/69 90/164/69 91/162/3
f 78/163/69 77/165/70 89/166/70 90/164/69
f 77/165/70 76/167/28 88/168/28 89/166/70
f 76/167/28 75/169/71 87/170/71 88/168/28
f 75/169/71 74/171/72 86/172/72 87/170/71
f 74/171/72 73/173/19 85/174/19 86/172/72
f 73/175/19 84/151/65 96/154/65 85/176/19
f 13/177/73 97/178/74 108/179/75 24/180/76
f 24/180/77 108/179/75 107/181/78 23/182/79
f 22/183/80 23/182/81 107/181/78 106/184/82
f 22/183/83 106/184/82 105/185/84 21/186/85
f 20/187/86 21/186/87 105/185/84 104/188/88
f 19/189/89 20/187/90 104/188/88 103/190/91
f 19/189/92 103/190/91 102/191/93 18/192/94
f 17/193/95 18/192/96 102/191/93 101/194/97
f 16/195/98 17/193/99 101/194/97 100/196/100
f 16/195/101 100/196/100 99/197/102 15/198/103
f 14/199/104 15/198/105 99/197/102 98/200/106
f 13/201/107 14/199/108 98/200/106 97/202/74
f 98/200/109 99/197/110 111/203/110 110/204/109
f 99/197/110 100/196/111 112/205/111 111/203/110
f 100/196/111 101/194/112 113/206/112 112/205/111
f 101/194/112 102/191/113 114/207/113 113/206/112
f 102/191/113 103/190/114 115/208/114 114/207/113
f 103/190/114 104/188/115 116/209/115 115/208/114
f 104/188/115 105/185/116 117/210/116 116/209/115
f 105/185/116 106/184/117 118/211/117 117/210/116
f 106/184/117 107/181/118 119/212/118 118/211/117
f 107/181/118 108/179/119 120/213/119 119/212/118
f 108/179/119 97/178/120 109/214/120 120/213/119
f 97/202/120 98/200/109 110/204/109 109/215/120
f 123/216/121 124/217/122 136/218/123 135/219/124
f 124/217/122 125/220/125 137/221/126 136/218/123
f 125/220/125 126/222/127 138/223/128 137/221/126
f 126/222/127 127/224/129 139/225/130 138/223/128
f 127/224/129 128/226/131 140/227/132 139/225/130
f 128/226/131 129/228/133 141/229/134 140/227/132
f 129/228/133 130/230/135 142/231/136 141/229/134
f 130/230/135 131/232/137 143/233/138 142/231/136
f 131/232/137 132/234/139 144/235/140 143/233/138
f 132/234/139 121/236/141 133/237/142 144/235/140
f 121/236/141 122/238/143 134/239/144 133/237/142
f 122/238/143 123/240/121 135/241/124 134/239/144
f 121/236/141 145/242/145 146/243/146 122/238/143
f 145/242/145 109/244/147 110/245/148 146/243/146
f 132/234/139 147/246/149 145/242/145 121/236/141
f 147/246/149 120/247/150 109/244/147 145/242/145
f 131/232/137 148/248/151 147/246/149 132/234/139
f 148/248/151 119/249/152 120/247/150 147/246/149
f 130/230/135 149/250/153 148/248/151 131/232/137
f 149/250/153 118/251/154 119/249/152 148/248/151
f 129/228/133 150/252/155 149/250/153 130/230/135
f 150/252/155 117/253/156 118/251/154 149/250/153
f 128/226/131 151/254/157 150/252/155 129/228/133
f 151/254/157 116/255/158 117/253/156 150/252/155
f 127/224/129 152/256/159 151/254/157 128/226/131
f 152/256/159 115/257/160 116/255/158 151/254/157
f 126/222/127 153/258/161 152/256/159 127/224/129
f 153/258/161 114/259/162 115/257/160 152/256/159
f 125/220/125 154/260/163 153/258/161 126/222/127
f 154/260/163 113/261/164 114/259/162 153/258/161
f 124/217/122 155/262/165 154/260/163 125/220/125
f 155/262/165 112/263/166 113/261/164 154/260/163
f 123/216/121 156/264/167 155/262/165 124/217/122
f 156/264/167 111/265/168 112/263/166 155/262/165
f 122/238/143 146/243/146 156/266/167 123/240/121
f 146/243/146 110/245/148 111/267/168 156/266/167
f 137/221/126 138/223/128 162/268/169 161/269/170
f 138/223/128 139/225/130 163/270/171 162/268/169
f 139/225/130 140/227/132 164/271/172 163/270/171
f 140/227/132 141/229/134 165/272/173 164/271/172
f 141/229/134 142/231/136 166/273/174 165/272/173
f 142/231/136 143/233/138 167/274/175 166/273/174
f 143/233/138 144/235/140 168/275/176 167/274/175
f 144/235/140 133/237/142 157/276/177 168/275/176
f 133/237/142 134/239/144 158/277/178 157/276/177
f 134/239/144 135/241/124 159/278/179 158/277/178
f 135/219/124 136/218/123 160/279/180 159/280/179
f 136/218/123 137/221/126 161/269/170 160/279/180
f 157/276/177 158/277/178 170/40/39 169/39/38
f 158/277/178 159/278/179 171/41/40 170/40/39
f 159/280/179 160/279/180 172/42/41 171/41/40
f 160/279/180 161/269/170 173/43/42 172/42/41
f 161/269/170 162/268/169 174/44/43 173/43/42
f 162/268/169 163/270/171 175/45/44 174/44/43
f 163/270/171 164/271/172 176/46/45 175/45/44
f 164/271/172 165/272/173 177/47/46 176/46/45
f 165/272/173 166/273/174 178/48/47 177/47/46
f 166/273/174 167/274/175 179/49/48 178/48/47
f 167/274/175 168/275/176 180/50/49 179/49/48
f 168/275/176 157/276/177 169/39/38 180/50/49
